<?xml version="1.0" encoding="utf-8"?>
<!-- Generator: Adobe Illustrator 24.0.0, SVG Export Plug-In . SVG Version: 6.00 Build 0)  -->
<svg version="1.1"
	 id="Layer_1" xmlns:cc="http://creativecommons.org/ns#" xmlns:dc="http://purl.org/dc/elements/1.1/" xmlns:rdf="http://www.w3.org/1999/02/22-rdf-syntax-ns#" xmlns:svg="http://www.w3.org/2000/svg"
	 xmlns="http://www.w3.org/2000/svg" xmlns:xlink="http://www.w3.org/1999/xlink" x="0px" y="0px" viewBox="0 0 281.6 378"
	 style="enable-background:new 0 0 281.6 378;" xml:space="preserve">
<style type="text/css">
	.st0{clip-path:url(#SVGID_2_);fill:none;stroke:#ffffff;stroke-width:5;stroke-miterlimit:4.8301;}
	.st1{clip-path:url(#SVGID_4_);fill:none;stroke:#ffffff;stroke-width:5;stroke-miterlimit:4.8301;}
	.st2{clip-path:url(#SVGID_6_);}
	.st3{clip-path:url(#SVGID_8_);fill:none;stroke:#ffffff;stroke-width:5;stroke-miterlimit:4.8301;}
	.st4{clip-path:url(#SVGID_10_);fill:none;stroke:#ffffff;stroke-width:5;stroke-miterlimit:4.8301;}
	.st5{clip-path:url(#SVGID_12_);fill:none;stroke:#ffffff;stroke-width:5;stroke-miterlimit:4.8301;}
	.st6{clip-path:url(#SVGID_14_);fill:none;stroke:#ffffff;stroke-width:5;stroke-miterlimit:4.8301;}
	.st7{clip-path:url(#SVGID_16_);fill:none;stroke:#ffffff;stroke-width:5;stroke-miterlimit:4.8301;}
	.st8{clip-path:url(#SVGID_18_);fill:none;stroke:#ffffff;stroke-width:5;stroke-miterlimit:4.8301;}
	.st9{clip-path:url(#SVGID_20_);fill:none;stroke:#ffffff;stroke-width:5;stroke-miterlimit:4.8301;}
	.st10{clip-path:url(#SVGID_22_);fill:none;stroke:#ffffff;stroke-width:5;stroke-miterlimit:4.8301;}
	.st11{clip-path:url(#SVGID_24_);fill:none;stroke:#ffffff;stroke-width:5;stroke-miterlimit:4.8301;}
	.st12{clip-path:url(#SVGID_26_);fill:none;stroke:#ffffff;stroke-width:5;stroke-miterlimit:4.8301;}
	.st13{clip-path:url(#SVGID_28_);fill:none;stroke:#ffffff;stroke-width:5;stroke-miterlimit:4.8301;}
	.st14{clip-path:url(#SVGID_30_);fill:none;stroke:#ffffff;stroke-width:5;stroke-miterlimit:4.8301;}
	.st15{clip-path:url(#SVGID_32_);fill:none;stroke:#ffffff;stroke-width:5;stroke-miterlimit:4.8301;}
	.st16{clip-path:url(#SVGID_34_);fill:none;stroke:#ffffff;stroke-width:5;stroke-miterlimit:4.8301;}
	.st17{clip-path:url(#SVGID_36_);fill:none;stroke:#ffffff;stroke-width:5;stroke-miterlimit:4.8301;}
	.st18{clip-path:url(#SVGID_38_);fill:none;stroke:#ffffff;stroke-width:5;stroke-miterlimit:4.8301;}
	.st19{clip-path:url(#SVGID_40_);fill:none;stroke:#ffffff;stroke-width:5;stroke-miterlimit:4.8301;}
	.st20{clip-path:url(#SVGID_42_);fill:none;stroke:#ffffff;stroke-width:5;stroke-miterlimit:4.8301;}
	.st21{clip-path:url(#SVGID_44_);fill:none;stroke:#ffffff;stroke-width:5;stroke-miterlimit:4.8301;}
	.st22{clip-path:url(#SVGID_46_);fill:none;stroke:#ffffff;stroke-width:5;stroke-miterlimit:4.8301;}
	.st23{clip-path:url(#SVGID_48_);fill:none;stroke:#ffffff;stroke-width:5;stroke-miterlimit:4.8301;}
	.st24{clip-path:url(#SVGID_50_);fill:none;stroke:#ffffff;stroke-width:5;stroke-miterlimit:4.8301;}
</style>
<g id="g74" transform="matrix(1.2075168,0,0,1.2075168,-300.67168,-95.393827)">
	<g>
		<defs>
			<rect id="SVGID_1_" x="-113.5" y="-48.8" width="1321" height="567.5"/>
		</defs>
		<clipPath id="SVGID_2_">
			<use xlink:href="#SVGID_1_"  style="overflow:visible;"/>
		</clipPath>
		<path id="path10" class="st0" d="M259,80h213c5,0,9,4,9,9v293c0,5-4,9-9,9H259c-5,0-9-4-9-9V89C250,84,254,80,259,80z"/>
	</g>
	<g>
		<defs>
			<rect id="SVGID_3_" x="-113.5" y="-48.8" width="1321" height="567.5"/>
		</defs>
		<clipPath id="SVGID_4_">
			<use xlink:href="#SVGID_3_"  style="overflow:visible;"/>
		</clipPath>
		<path id="path12" class="st1" d="M408,92h55c5,0,9,4,9,9v55c0,5-4,9-9,9h-55c-5,0-9-4-9-9v-55C399,96,403,92,408,92z"/>
	</g>
	<g>
		<defs>
			<rect id="SVGID_5_" x="-113.5" y="-48.8" width="1321" height="567.5"/>
		</defs>
		<clipPath id="SVGID_6_">
			<use xlink:href="#SVGID_5_"  style="overflow:visible;"/>
		</clipPath>
		<g id="g58" class="st2">
			<g>
				<defs>
					<rect id="SVGID_7_" x="238.1" y="165.1" width="266.9" height="242.7"/>
				</defs>
				<clipPath id="SVGID_8_">
					<use xlink:href="#SVGID_7_"  style="overflow:visible;"/>
				</clipPath>
				<path id="path20" class="st3" d="M447,187h21c2.2,0,4,1.8,4,4v21c0,2.2-1.8,4-4,4h-21c-2.2,0-4-1.8-4-4v-21
					C443,188.8,444.8,187,447,187z"/>
			</g>
			<g>
				<defs>
					<rect id="SVGID_9_" x="238.1" y="165.1" width="266.9" height="242.7"/>
				</defs>
				<clipPath id="SVGID_10_">
					<use xlink:href="#SVGID_9_"  style="overflow:visible;"/>
				</clipPath>
				<path id="path22" class="st4" d="M405,187h21c2.2,0,4,1.8,4,4v21c0,2.2-1.8,4-4,4h-21c-2.2,0-4-1.8-4-4v-21
					C401,188.8,402.8,187,405,187z"/>
			</g>
			<g>
				<defs>
					<rect id="SVGID_11_" x="238.1" y="165.1" width="266.9" height="242.7"/>
				</defs>
				<clipPath id="SVGID_12_">
					<use xlink:href="#SVGID_11_"  style="overflow:visible;"/>
				</clipPath>
				<path id="path24" class="st5" d="M363,187h21c2.2,0,4,1.8,4,4v21c0,2.2-1.8,4-4,4h-21c-2.2,0-4-1.8-4-4v-21
					C359,188.8,360.8,187,363,187z"/>
			</g>
			<g>
				<defs>
					<rect id="SVGID_13_" x="238.1" y="165.1" width="266.9" height="242.7"/>
				</defs>
				<clipPath id="SVGID_14_">
					<use xlink:href="#SVGID_13_"  style="overflow:visible;"/>
				</clipPath>
				<path id="path26" class="st6" d="M321,187h21c2.2,0,4,1.8,4,4v21c0,2.2-1.8,4-4,4h-21c-2.2,0-4-1.8-4-4v-21
					C317,188.8,318.8,187,321,187z"/>
			</g>
			<g>
				<defs>
					<rect id="SVGID_15_" x="238.1" y="165.1" width="266.9" height="242.7"/>
				</defs>
				<clipPath id="SVGID_16_">
					<use xlink:href="#SVGID_15_"  style="overflow:visible;"/>
				</clipPath>
				<path id="path28" class="st7" d="M266,187h21c2.2,0,4,1.8,4,4v21c0,2.2-1.8,4-4,4h-21c-2.2,0-4-1.8-4-4v-21
					C262,188.8,263.8,187,266,187z"/>
			</g>
			<g>
				<defs>
					<rect id="SVGID_17_" x="238.1" y="165.1" width="266.9" height="242.7"/>
				</defs>
				<clipPath id="SVGID_18_">
					<use xlink:href="#SVGID_17_"  style="overflow:visible;"/>
				</clipPath>
				<path id="path30" class="st8" d="M405,227h21c2.2,0,4,1.8,4,4v21c0,2.2-1.8,4-4,4h-21c-2.2,0-4-1.8-4-4v-21
					C401,228.8,402.8,227,405,227z"/>
			</g>
			<g>
				<defs>
					<rect id="SVGID_19_" x="238.1" y="165.1" width="266.9" height="242.7"/>
				</defs>
				<clipPath id="SVGID_20_">
					<use xlink:href="#SVGID_19_"  style="overflow:visible;"/>
				</clipPath>
				<path id="path32" class="st9" d="M363,227h21c2.2,0,4,1.8,4,4v21c0,2.2-1.8,4-4,4h-21c-2.2,0-4-1.8-4-4v-21
					C359,228.8,360.8,227,363,227z"/>
			</g>
			<g>
				<defs>
					<rect id="SVGID_21_" x="238.1" y="165.1" width="266.9" height="242.7"/>
				</defs>
				<clipPath id="SVGID_22_">
					<use xlink:href="#SVGID_21_"  style="overflow:visible;"/>
				</clipPath>
				<path id="path34" class="st10" d="M321,227h21c2.2,0,4,1.8,4,4v21c0,2.2-1.8,4-4,4h-21c-2.2,0-4-1.8-4-4v-21
					C317,228.8,318.8,227,321,227z"/>
			</g>
			<g>
				<defs>
					<rect id="SVGID_23_" x="238.1" y="165.1" width="266.9" height="242.7"/>
				</defs>
				<clipPath id="SVGID_24_">
					<use xlink:href="#SVGID_23_"  style="overflow:visible;"/>
				</clipPath>
				<path id="path36" class="st11" d="M266,227h21c2.2,0,4,1.8,4,4v21c0,2.2-1.8,4-4,4h-21c-2.2,0-4-1.8-4-4v-21
					C262,228.8,263.8,227,266,227z"/>
			</g>
			<g>
				<defs>
					<rect id="SVGID_25_" x="238.1" y="165.1" width="266.9" height="242.7"/>
				</defs>
				<clipPath id="SVGID_26_">
					<use xlink:href="#SVGID_25_"  style="overflow:visible;"/>
				</clipPath>
				<path id="path38" class="st12" d="M405,267h21c2.2,0,4,1.8,4,4v21c0,2.2-1.8,4-4,4h-21c-2.2,0-4-1.8-4-4v-21
					C401,268.8,402.8,267,405,267z"/>
			</g>
			<g>
				<defs>
					<rect id="SVGID_27_" x="238.1" y="165.1" width="266.9" height="242.7"/>
				</defs>
				<clipPath id="SVGID_28_">
					<use xlink:href="#SVGID_27_"  style="overflow:visible;"/>
				</clipPath>
				<path id="path40" class="st13" d="M363,267h21c2.2,0,4,1.8,4,4v21c0,2.2-1.8,4-4,4h-21c-2.2,0-4-1.8-4-4v-21
					C359,268.8,360.8,267,363,267z"/>
			</g>
			<g>
				<defs>
					<rect id="SVGID_29_" x="238.1" y="165.1" width="266.9" height="242.7"/>
				</defs>
				<clipPath id="SVGID_30_">
					<use xlink:href="#SVGID_29_"  style="overflow:visible;"/>
				</clipPath>
				<path id="path42" class="st14" d="M321,267h21c2.2,0,4,1.8,4,4v21c0,2.2-1.8,4-4,4h-21c-2.2,0-4-1.8-4-4v-21
					C317,268.8,318.8,267,321,267z"/>
			</g>
			<g>
				<defs>
					<rect id="SVGID_31_" x="238.1" y="165.1" width="266.9" height="242.7"/>
				</defs>
				<clipPath id="SVGID_32_">
					<use xlink:href="#SVGID_31_"  style="overflow:visible;"/>
				</clipPath>
				<path id="path44" class="st15" d="M266,267h21c2.2,0,4,1.8,4,4v21c0,2.2-1.8,4-4,4h-21c-2.2,0-4-1.8-4-4v-21
					C262,268.8,263.8,267,266,267z"/>
			</g>
			<g>
				<defs>
					<rect id="SVGID_33_" x="238.1" y="165.1" width="266.9" height="242.7"/>
				</defs>
				<clipPath id="SVGID_34_">
					<use xlink:href="#SVGID_33_"  style="overflow:visible;"/>
				</clipPath>
				<path id="path46" class="st16" d="M405,307h21c2.2,0,4,1.8,4,4v21c0,2.2-1.8,4-4,4h-21c-2.2,0-4-1.8-4-4v-21
					C401,308.8,402.8,307,405,307z"/>
			</g>
			<g>
				<defs>
					<rect id="SVGID_35_" x="238.1" y="165.1" width="266.9" height="242.7"/>
				</defs>
				<clipPath id="SVGID_36_">
					<use xlink:href="#SVGID_35_"  style="overflow:visible;"/>
				</clipPath>
				<path id="path48" class="st17" d="M363,307h21c2.2,0,4,1.8,4,4v21c0,2.2-1.8,4-4,4h-21c-2.2,0-4-1.8-4-4v-21
					C359,308.8,360.8,307,363,307z"/>
			</g>
			<g>
				<defs>
					<rect id="SVGID_37_" x="238.1" y="165.1" width="266.9" height="242.7"/>
				</defs>
				<clipPath id="SVGID_38_">
					<use xlink:href="#SVGID_37_"  style="overflow:visible;"/>
				</clipPath>
				<path id="path50" class="st18" d="M321,307h21c2.2,0,4,1.8,4,4v21c0,2.2-1.8,4-4,4h-21c-2.2,0-4-1.8-4-4v-21
					C317,308.8,318.8,307,321,307z"/>
			</g>
			<g>
				<defs>
					<rect id="SVGID_39_" x="238.1" y="165.1" width="266.9" height="242.7"/>
				</defs>
				<clipPath id="SVGID_40_">
					<use xlink:href="#SVGID_39_"  style="overflow:visible;"/>
				</clipPath>
				<path id="path52" class="st19" d="M266,307h21c2.2,0,4,1.8,4,4v21c0,2.2-1.8,4-4,4h-21c-2.2,0-4-1.8-4-4v-21
					C262,308.8,263.8,307,266,307z"/>
			</g>
			<g>
				<defs>
					<rect id="SVGID_41_" x="238.1" y="165.1" width="266.9" height="242.7"/>
				</defs>
				<clipPath id="SVGID_42_">
					<use xlink:href="#SVGID_41_"  style="overflow:visible;"/>
				</clipPath>
				<path id="path54" class="st20" d="M405,347h21c2.2,0,4,1.8,4,4v21c0,2.2-1.8,4-4,4h-21c-2.2,0-4-1.8-4-4v-21
					C401,348.8,402.8,347,405,347z"/>
			</g>
			<g>
				<defs>
					<rect id="SVGID_43_" x="238.1" y="165.1" width="266.9" height="242.7"/>
				</defs>
				<clipPath id="SVGID_44_">
					<use xlink:href="#SVGID_43_"  style="overflow:visible;"/>
				</clipPath>
				<path id="path56" class="st21" d="M266,347h21c2.2,0,4,1.8,4,4v21c0,2.2-1.8,4-4,4h-21c-2.2,0-4-1.8-4-4v-21
					C262,348.8,263.8,347,266,347z"/>
			</g>
		</g>
	</g>
	<g>
		<defs>
			<rect id="SVGID_45_" x="-113.5" y="-48.8" width="1321" height="567.5"/>
		</defs>
		<clipPath id="SVGID_46_">
			<use xlink:href="#SVGID_45_"  style="overflow:visible;"/>
		</clipPath>
		<path id="path60" class="st22" d="M447,227h21c2.2,0,4,1.8,4,4v61c0,2.2-1.8,4-4,4h-21c-2.2,0-4-1.8-4-4v-61
			C443,228.8,444.8,227,447,227z"/>
	</g>
	<g>
		<defs>
			<rect id="SVGID_47_" x="-113.5" y="-48.8" width="1321" height="567.5"/>
		</defs>
		<clipPath id="SVGID_48_">
			<use xlink:href="#SVGID_47_"  style="overflow:visible;"/>
		</clipPath>
		<path id="path62" class="st23" d="M447,307h21c2.2,0,4,1.8,4,4v61c0,2.2-1.8,4-4,4h-21c-2.2,0-4-1.8-4-4v-61
			C443,308.8,444.8,307,447,307z"/>
	</g>
	<g>
		<defs>
			<rect id="SVGID_49_" x="-113.5" y="-48.8" width="1321" height="567.5"/>
		</defs>
		<clipPath id="SVGID_50_">
			<use xlink:href="#SVGID_49_"  style="overflow:visible;"/>
		</clipPath>
		<path id="path64" class="st24" d="M388,351v21c0,2.2-1.8,4-4,4h-63c-2.2,0-4-1.8-4-4v-21c0-2.2,1.8-4,4-4h63
			C386.2,347,388,348.8,388,351z"/>
	</g>
	<g>
		<defs>
			<rect id="SVGID_51_" x="-113.5" y="-48.8" width="1321" height="567.5"/>
		</defs>
		<clipPath id="SVGID_52_">
			<use xlink:href="#SVGID_51_"  style="overflow:visible;"/>
		</clipPath>
	</g>
	<g>
		<defs>
			<rect id="SVGID_53_" x="-113.5" y="-48.8" width="1321" height="567.5"/>
		</defs>
		<clipPath id="SVGID_54_">
			<use xlink:href="#SVGID_53_"  style="overflow:visible;"/>
		</clipPath>
	</g>
	<g>
		<defs>
			<rect id="SVGID_55_" x="-113.5" y="-48.8" width="1321" height="567.5"/>
		</defs>
		<clipPath id="SVGID_56_">
			<use xlink:href="#SVGID_55_"  style="overflow:visible;"/>
		</clipPath>
	</g>
	<g>
		<defs>
			<rect id="SVGID_57_" x="-113.5" y="-48.8" width="1321" height="567.5"/>
		</defs>
		<clipPath id="SVGID_58_">
			<use xlink:href="#SVGID_57_"  style="overflow:visible;"/>
		</clipPath>
	</g>
</g>
</svg>
